<?xml version="1.0" encoding="UTF-8" standalone="no"?>
<!-- Created with Inkscape (http://www.inkscape.org/) -->

<svg
   xmlns:dc="http://purl.org/dc/elements/1.1/"
   xmlns:cc="http://creativecommons.org/ns#"
   xmlns:rdf="http://www.w3.org/1999/02/22-rdf-syntax-ns#"
   xmlns:svg="http://www.w3.org/2000/svg"
   xmlns="http://www.w3.org/2000/svg"
   xmlns:xlink="http://www.w3.org/1999/xlink"
   xmlns:sodipodi="http://sodipodi.sourceforge.net/DTD/sodipodi-0.dtd"
   xmlns:inkscape="http://www.inkscape.org/namespaces/inkscape"
   width="32px"
   height="32px"
   id="svg2859"
   version="1.1"
   inkscape:version="0.46+devel 21949"
   sodipodi:docname="Rename.svg"
   inkscape:output_extension="org.inkscape.output.svg.inkscape"
   inkscape:export-filename="C:\Documents and Settings\yanapa\Mes documents\Inkscape\Wiithon\Rename.png"
   inkscape:export-xdpi="135"
   inkscape:export-ydpi="135">
  <title
     id="title3878">Wii - Rename Game</title>
  <defs
     id="defs2861">
    <linearGradient
       inkscape:collect="always"
       id="linearGradient5112">
      <stop
         style="stop-color:#000000;stop-opacity:1;"
         offset="0"
         id="stop5114" />
      <stop
         style="stop-color:#000000;stop-opacity:0;"
         offset="1"
         id="stop5116" />
    </linearGradient>
    <linearGradient
       inkscape:collect="always"
       xlink:href="#linearGradient5112"
       id="linearGradient5243"
       gradientUnits="userSpaceOnUse"
       x1="22.359638"
       y1="15.980393"
       x2="25.062195"
       y2="15.980393" />
    <linearGradient
       inkscape:collect="always"
       xlink:href="#linearGradient5112"
       id="linearGradient3288"
       gradientUnits="userSpaceOnUse"
       x1="22.359638"
       y1="15.980393"
       x2="25.062195"
       y2="15.980393" />
    <linearGradient
       inkscape:collect="always"
       xlink:href="#linearGradient5112"
       id="linearGradient3446"
       gradientUnits="userSpaceOnUse"
       x1="22.359638"
       y1="15.980393"
       x2="25.062195"
       y2="15.980393" />
    <linearGradient
       inkscape:collect="always"
       xlink:href="#linearGradient5112-7"
       id="linearGradient3288-1"
       gradientUnits="userSpaceOnUse"
       x1="22.359638"
       y1="15.980393"
       x2="25.062195"
       y2="15.980393" />
    <linearGradient
       inkscape:collect="always"
       id="linearGradient5112-7">
      <stop
         style="stop-color:#000000;stop-opacity:1;"
         offset="0"
         id="stop5114-4" />
      <stop
         style="stop-color:#000000;stop-opacity:0;"
         offset="1"
         id="stop5116-0" />
    </linearGradient>
    <linearGradient
       inkscape:collect="always"
       id="linearGradient6028">
      <stop
         style="stop-color:#ffffff;stop-opacity:1;"
         offset="0"
         id="stop6030" />
      <stop
         style="stop-color:#ffffff;stop-opacity:0;"
         offset="1"
         id="stop6032" />
    </linearGradient>
    <linearGradient
       inkscape:collect="always"
       id="linearGradient6036">
      <stop
         style="stop-color:#ffffff;stop-opacity:1;"
         offset="0"
         id="stop6038" />
      <stop
         style="stop-color:#ffffff;stop-opacity:0;"
         offset="1"
         id="stop6040" />
    </linearGradient>
    <linearGradient
       inkscape:collect="always"
       id="linearGradient4409">
      <stop
         style="stop-color:#ffffff;stop-opacity:1;"
         offset="0"
         id="stop4411" />
      <stop
         style="stop-color:#ffffff;stop-opacity:0;"
         offset="1"
         id="stop4413" />
    </linearGradient>
    <linearGradient
       id="aigrd2"
       gradientUnits="userSpaceOnUse"
       x1="12.2744"
       y1="32.4165"
       x2="35.391201"
       y2="14.2033">
      <stop
         offset="0"
         style="stop-color:#FBFBFB"
         id="stop3043" />
      <stop
         offset="0.5"
         style="stop-color:#B6B6B6"
         id="stop3045" />
      <stop
         offset="1"
         style="stop-color:#E4E4E4"
         id="stop3047" />
    </linearGradient>
    <linearGradient
       id="aigrd1"
       gradientUnits="userSpaceOnUse"
       x1="14.9966"
       y1="11.1885"
       x2="32.511002"
       y2="34.307499">
      <stop
         offset="0"
         style="stop-color:#EBEBEB"
         id="stop3034" />
      <stop
         offset="0.5"
         style="stop-color:#FFFFFF"
         id="stop3036" />
      <stop
         offset="1"
         style="stop-color:#EBEBEB"
         id="stop3038" />
    </linearGradient>
    <linearGradient
       inkscape:collect="always"
       xlink:href="#aigrd1"
       id="linearGradient4396"
       gradientUnits="userSpaceOnUse"
       gradientTransform="matrix(1.190476,0,0,1.190476,-15.933948,-29.854774)"
       x1="14.9966"
       y1="11.1885"
       x2="32.511002"
       y2="34.307499" />
    <linearGradient
       inkscape:collect="always"
       xlink:href="#aigrd2"
       id="linearGradient4398"
       gradientUnits="userSpaceOnUse"
       gradientTransform="matrix(1.190476,0,0,1.190476,-15.933948,-29.854775)"
       x1="12.2744"
       y1="32.4165"
       x2="35.391201"
       y2="14.2033" />
    <linearGradient
       inkscape:collect="always"
       xlink:href="#linearGradient4409"
       id="linearGradient4400"
       gradientUnits="userSpaceOnUse"
       gradientTransform="translate(-11.125004,-26.375004)"
       x1="25.985928"
       y1="24.919628"
       x2="15.889072"
       y2="11.669628" />
    <linearGradient
       inkscape:collect="always"
       xlink:href="#linearGradient6036"
       id="linearGradient4402"
       gradientUnits="userSpaceOnUse"
       gradientTransform="translate(-11.709524,-27.354774)"
       x1="10.50172"
       y1="3.6100161"
       x2="48.798885"
       y2="54.698483" />
    <linearGradient
       inkscape:collect="always"
       xlink:href="#linearGradient6028"
       id="linearGradient4404"
       gradientUnits="userSpaceOnUse"
       x1="28.702885"
       y1="31.494707"
       x2="17.742729"
       y2="18.366575" />
    <inkscape:perspective
       id="perspective2897"
       inkscape:persp3d-origin="0.5 : 0.33333333 : 1"
       inkscape:vp_z="1 : 0.5 : 1"
       inkscape:vp_y="0 : 1000 : 0"
       inkscape:vp_x="0 : 0.5 : 1"
       sodipodi:type="inkscape:persp3d" />
    <linearGradient
       inkscape:collect="always"
       xlink:href="#linearGradient5112-5"
       id="linearGradient5243-4"
       gradientUnits="userSpaceOnUse"
       x1="22.359638"
       y1="15.980393"
       x2="25.062195"
       y2="15.980393" />
    <linearGradient
       inkscape:collect="always"
       id="linearGradient5112-5">
      <stop
         style="stop-color:#000000;stop-opacity:1;"
         offset="0"
         id="stop5114-5" />
      <stop
         style="stop-color:#000000;stop-opacity:0;"
         offset="1"
         id="stop5116-1" />
    </linearGradient>
  </defs>
  <sodipodi:namedview
     id="base"
     pagecolor="#ffffff"
     bordercolor="#666666"
     borderopacity="1.0"
     inkscape:pageopacity="0.0"
     inkscape:pageshadow="2"
     inkscape:zoom="7.9999999"
     inkscape:cx="19.742252"
     inkscape:cy="27.562414"
     inkscape:current-layer="layer1"
     showgrid="true"
     inkscape:grid-bbox="true"
     inkscape:document-units="px"
     inkscape:window-width="1280"
     inkscape:window-height="941"
     inkscape:window-x="-4"
     inkscape:window-y="-4"
     inkscape:window-maximized="1"
     showguides="true"
     inkscape:guide-bbox="true" />
  <metadata
     id="metadata2864">
    <rdf:RDF>
      <cc:Work
         rdf:about="">
        <dc:format>image/svg+xml</dc:format>
        <dc:type
           rdf:resource="http://purl.org/dc/dcmitype/StillImage" />
        <dc:title>Wii - Rename Game</dc:title>
        <cc:license
           rdf:resource="http://creativecommons.org/licenses/by-nc-sa/3.0/" />
        <dc:subject>
          <rdf:Bag>
            <rdf:li>wii wbfs cd rename</rdf:li>
          </rdf:Bag>
        </dc:subject>
        <dc:creator>
          <cc:Agent>
            <dc:title>Yann Papouin</dc:title>
          </cc:Agent>
        </dc:creator>
        <dc:rights>
          <cc:Agent>
            <dc:title>Yann Papouin</dc:title>
          </cc:Agent>
        </dc:rights>
        <dc:publisher>
          <cc:Agent>
            <dc:title>Yann Papouin</dc:title>
          </cc:Agent>
        </dc:publisher>
      </cc:Work>
      <cc:License
         rdf:about="http://creativecommons.org/licenses/by-nc-sa/3.0/">
        <cc:permits
           rdf:resource="http://creativecommons.org/ns#Reproduction" />
        <cc:permits
           rdf:resource="http://creativecommons.org/ns#Distribution" />
        <cc:requires
           rdf:resource="http://creativecommons.org/ns#Notice" />
        <cc:requires
           rdf:resource="http://creativecommons.org/ns#Attribution" />
        <cc:prohibits
           rdf:resource="http://creativecommons.org/ns#CommercialUse" />
        <cc:permits
           rdf:resource="http://creativecommons.org/ns#DerivativeWorks" />
        <cc:requires
           rdf:resource="http://creativecommons.org/ns#ShareAlike" />
      </cc:License>
    </rdf:RDF>
  </metadata>
  <g
     id="layer1"
     inkscape:label="Layer 1"
     inkscape:groupmode="layer">
    <g
       id="g4385"
       transform="matrix(0.66566035,0,0,0.66566035,7.9254067,16.676219)">
      <path
         style="fill:url(#linearGradient4396);fill-rule:nonzero;stroke:none"
         d="m 12.637482,-23.188107 c -11.5476205,0 -20.8333341,9.285714 -20.8333341,20.8333332 0,11.54762 9.2857136,20.8333348 20.8333341,20.8333348 11.54762,0 20.833335,-9.2857148 20.833335,-20.8333348 0,-11.5476192 -9.285715,-20.8333332 -20.833335,-20.8333332 l 0,0 z m 0,25.8333342 c -2.7380955,0 -5.0000005,-2.26190503 -5.0000005,-5.000001 0,-2.738095 2.261905,-5 5.0000005,-5 2.738095,0 5,2.261905 5,5 0,2.73809597 -2.261905,5.000001 -5,5.000001 z"
         id="path3040"
         inkscape:r_cx="true"
         inkscape:r_cy="true" />
      <path
         style="fill:url(#linearGradient4398);fill-rule:nonzero;stroke:#808080;stroke-width:1.39853108;stroke-miterlimit:4;stroke-opacity:1"
         d="m 12.637482,-23.188108 c -11.5476205,0 -20.833334,9.285715 -20.833334,20.8333342 0,11.54762 9.2857135,20.8333348 20.833334,20.8333348 11.54762,0 20.833335,-9.2857148 20.833335,-20.8333348 0,-11.5476192 -9.285715,-20.8333342 -20.833335,-20.8333342 l 0,0 z m 0,25.8333352 c -2.7380955,0 -5.0000005,-2.26190503 -5.0000005,-5.000001 0,-2.738095 2.261905,-5 5.0000005,-5 2.738095,0 5,2.261905 5,5 0,2.73809597 -2.261905,5.000001 -5,5.000001 z"
         id="path3049"
         inkscape:r_cx="true"
         inkscape:r_cy="true" />
      <path
         sodipodi:nodetypes="csccssccsc"
         id="path3531"
         d="m 11.785534,-22.562668 c -10.7616915,0.40591 -19.2996105,9.217352 -19.2996105,20.0824342 0,4.925505 1.7471235,9.40239 4.6668326,12.8864798 L 8.2701085,0.99595217 c -0.721341,-0.843341 -1.049235,-2.04316797 -1.049235,-3.22618597 0,-3.39039 2.304289,-5.567375 5.5673755,-5.567375 1.483925,0 2.971087,0.673427 3.858466,1.746298 l 11.367353,-9.2852942 c -3.675171,-4.424154 -9.244275,-7.226063 -15.475819,-7.226063 -0.260761,0 -0.494434,-0.0097 -0.752715,0 z"
         style="fill:url(#linearGradient4400);fill-opacity:1;fill-rule:nonzero;stroke:none" />
      <path
         style="opacity:0.51098902;fill:#eeeeec;fill-rule:nonzero;stroke:none"
         d="m 12.637482,-12.458939 c -5.6425865,0 -10.1041665,4.5928032 -10.1041665,10.1041652 0,5.642588 4.592804,10.104166 10.1041665,10.104166 5.642586,0 10.104166,-4.592802 10.104166,-10.104166 0,-5.642586 -4.592804,-10.1041652 -10.104166,-10.1041652 l 0,0 z m 0,15.6155292 c -3.0181275,0 -5.5113625,-2.49323503 -5.5113625,-5.511364 0,-3.018127 2.493235,-5.511362 5.5113625,-5.511362 3.018127,0 5.511362,2.493235 5.511362,5.511362 0,3.01812897 -2.493235,5.511364 -5.511362,5.511364 z"
         id="path3051"
         inkscape:r_cx="true"
         inkscape:r_cy="true" />
      <path
         sodipodi:nodetypes="cccccc"
         id="path5264"
         d="m 12.637478,-22.152409 c -10.9735445,0 -19.7976309,8.824089 -19.7976309,19.7976322 0,10.973544 8.8240864,19.7976308 19.7976309,19.7976308 10.973544,0 19.797631,-8.8240868 19.797631,-19.7976308 0,-10.9735432 -8.824087,-19.7976322 -19.797631,-19.7976322 l 0,0 z"
         style="opacity:0.54644811;fill:none;stroke:url(#linearGradient4402);stroke-width:1.39853108;stroke-miterlimit:4;stroke-opacity:1"
         inkscape:r_cx="true"
         inkscape:r_cy="true" />
      <path
         transform="translate(-11.621136,-27.266385)"
         d="m 30.405591,24.930641 c 0,3.368272 -2.730524,6.098796 -6.098796,6.098796 -3.368272,0 -6.098796,-2.730524 -6.098796,-6.098796 0,-3.368272 2.730524,-6.098796 6.098796,-6.098796 3.368272,0 6.098796,2.730524 6.098796,6.098796 z"
         sodipodi:ry="6.0987959"
         sodipodi:rx="6.0987959"
         sodipodi:cy="24.930641"
         sodipodi:cx="24.306795"
         id="path6026"
         style="opacity:0.67213111;color:#000000;fill:none;stroke:url(#linearGradient4404);stroke-width:1.30138707;stroke-linecap:butt;stroke-linejoin:miter;stroke-miterlimit:4;stroke-opacity:1;stroke-dashoffset:0;marker:none;visibility:visible;display:inline;overflow:visible"
         sodipodi:type="arc"
         inkscape:r_cx="true"
         inkscape:r_cy="true" />
    </g>
    <path
       d=""
       style="fill:#000000"
       id="path6944" />
    <g
       id="g4412"
       transform="matrix(1,0,0,0.96046131,0,8.5173201)">
      <rect
         style="fill:#ffffff;fill-opacity:1;fill-rule:evenodd;stroke:#048def;stroke-width:1.39999998000000000;stroke-linecap:butt;stroke-linejoin:miter;stroke-miterlimit:4;stroke-opacity:1;stroke-dasharray:none"
         id="rect4414"
         width="29.344933"
         height="14.407301"
         x="1.7008253"
         y="7.4609718"
         rx="2.2052672"
         ry="2.2960501" />
      <g
         transform="matrix(0.6660832,0,0,0.80593284,19.119138,2.811024)"
         id="g4427">
        <path
           style="font-size:medium;font-style:normal;font-variant:normal;font-weight:normal;font-stretch:normal;text-indent:0;text-align:start;text-decoration:none;line-height:normal;letter-spacing:normal;word-spacing:normal;text-transform:none;direction:ltr;block-progression:tb;writing-mode:lr-tb;text-anchor:start;color:#000000;fill:#454644;fill-opacity:1;fill-rule:nonzero;stroke:none;stroke-width:0.41074070000000001;marker:none;visibility:visible;display:inline;overflow:visible;enable-background:accumulate;font-family:Bitstream Vera Sans;-inkscape-font-specification:Bitstream Vera Sans"
           d="m 5.5448943,9.4892264 0,0.2825981 0,0.8074235 0,0.282598 0.3284125,0 1.8766423,0 0,0.242227 0,7.670521 -1.8766423,0 -0.3284125,0 0,0.282599 0,0.807423 0,0.282598 0.3284125,0 5.2545982,0 0.328413,0 0,-0.282598 0,-0.807423 0,-0.282599 -0.328413,0 -1.876642,0 0,-7.670521 0,-0.242227 1.876642,0 0.328413,0 0,-0.282598 0,-0.8074235 0,-0.2825981 -0.328413,0 -5.2545982,0 -0.3284125,0 z"
           id="rect4429"
           sodipodi:nodetypes="ccccccccccccccccccccccccccccccc" />
      </g>
      <text
         xml:space="preserve"
         style="font-size:9.16897297px;font-style:normal;font-variant:normal;font-weight:bold;font-stretch:normal;text-align:start;line-height:125%;writing-mode:lr-tb;text-anchor:start;fill:#626460;fill-opacity:1;stroke:none;font-family:Bitstream Vera Sans;-inkscape-font-specification:Bitstream Vera Sans Bold"
         x="4.7961392"
         y="17.621246"
         id="text4437"
         transform="scale(0.95789056,1.0439606)"
         sodipodi:linespacing="125%"><tspan
           sodipodi:role="line"
           id="tspan4470"
           x="4.7961392"
           y="17.621246">ren</tspan></text>
      <rect
         style="fill:#0053c4;fill-opacity:0.20197042;stroke:none"
         id="rect4435"
         width="18.4375"
         height="8.7197685"
         x="3.9375"
         y="10.328558"
         rx="0"
         ry="0" />
    </g>
  </g>
</svg>
