<?xml version="1.0" encoding="UTF-8" standalone="no"?>
<!-- Created with Inkscape (http://www.inkscape.org/) -->

<svg
   xmlns:dc="http://purl.org/dc/elements/1.1/"
   xmlns:cc="http://creativecommons.org/ns#"
   xmlns:rdf="http://www.w3.org/1999/02/22-rdf-syntax-ns#"
   xmlns:svg="http://www.w3.org/2000/svg"
   xmlns="http://www.w3.org/2000/svg"
   xmlns:xlink="http://www.w3.org/1999/xlink"
   xmlns:sodipodi="http://sodipodi.sourceforge.net/DTD/sodipodi-0.dtd"
   xmlns:inkscape="http://www.inkscape.org/namespaces/inkscape"
   width="32px"
   height="32px"
   id="svg2859"
   version="1.1"
   inkscape:version="0.46+devel 21949"
   sodipodi:docname="Delete.svg"
   inkscape:output_extension="org.inkscape.output.svg.inkscape"
   inkscape:export-filename="C:\Documents and Settings\yanapa\Mes documents\Inkscape\Wiithon\Delete.png"
   inkscape:export-xdpi="135"
   inkscape:export-ydpi="135">
  <title
     id="title3042">Wii - Delete ID from WBFS</title>
  <defs
     id="defs2861">
    <inkscape:perspective
       sodipodi:type="inkscape:persp3d"
       inkscape:vp_x="0 : 16 : 1"
       inkscape:vp_y="0 : 1000 : 0"
       inkscape:vp_z="32 : 16 : 1"
       inkscape:persp3d-origin="16 : 10.666667 : 1"
       id="perspective76" />
    <linearGradient
       id="linearGradient3860">
      <stop
         id="stop3862"
         offset="0"
         style="stop-color:#899f90;stop-opacity:1;" />
      <stop
         style="stop-color:#b5c4b6;stop-opacity:1;"
         offset="0.08326366"
         id="stop3864" />
      <stop
         id="stop3866"
         offset="0.91836822"
         style="stop-color:#737c75;stop-opacity:1;" />
      <stop
         id="stop3868"
         offset="1"
         style="stop-color:#b1b2b1;stop-opacity:1;" />
    </linearGradient>
    <linearGradient
       inkscape:collect="always"
       id="linearGradient5112">
      <stop
         style="stop-color:#000000;stop-opacity:1;"
         offset="0"
         id="stop5114" />
      <stop
         style="stop-color:#000000;stop-opacity:0;"
         offset="1"
         id="stop5116" />
    </linearGradient>
    <linearGradient
       inkscape:collect="always"
       id="linearGradient5102">
      <stop
         style="stop-color:#aeaeae;stop-opacity:1"
         offset="0"
         id="stop5104" />
      <stop
         id="stop5110"
         offset="0.03669481"
         style="stop-color:#ffffff;stop-opacity:1" />
      <stop
         style="stop-color:#64a1cb;stop-opacity:0.35686275;"
         offset="0.93034834"
         id="stop5120" />
      <stop
         style="stop-color:#5ebdff;stop-opacity:0;"
         offset="1"
         id="stop5106" />
    </linearGradient>
    <linearGradient
       inkscape:collect="always"
       id="linearGradient6028">
      <stop
         style="stop-color:#ffffff;stop-opacity:1;"
         offset="0"
         id="stop6030" />
      <stop
         style="stop-color:#ffffff;stop-opacity:0;"
         offset="1"
         id="stop6032" />
    </linearGradient>
    <linearGradient
       inkscape:collect="always"
       id="linearGradient6036">
      <stop
         style="stop-color:#ffffff;stop-opacity:1;"
         offset="0"
         id="stop6038" />
      <stop
         style="stop-color:#ffffff;stop-opacity:0;"
         offset="1"
         id="stop6040" />
    </linearGradient>
    <linearGradient
       inkscape:collect="always"
       id="linearGradient4409">
      <stop
         style="stop-color:#ffffff;stop-opacity:1;"
         offset="0"
         id="stop4411" />
      <stop
         style="stop-color:#ffffff;stop-opacity:0;"
         offset="1"
         id="stop4413" />
    </linearGradient>
    <linearGradient
       id="aigrd2"
       gradientUnits="userSpaceOnUse"
       x1="12.2744"
       y1="32.4165"
       x2="35.391201"
       y2="14.2033">
      <stop
         offset="0"
         style="stop-color:#FBFBFB"
         id="stop3043" />
      <stop
         offset="0.5"
         style="stop-color:#B6B6B6"
         id="stop3045" />
      <stop
         offset="1"
         style="stop-color:#E4E4E4"
         id="stop3047" />
    </linearGradient>
    <linearGradient
       id="aigrd1"
       gradientUnits="userSpaceOnUse"
       x1="14.9966"
       y1="11.1885"
       x2="32.511002"
       y2="34.307499">
      <stop
         offset="0"
         style="stop-color:#EBEBEB"
         id="stop3034" />
      <stop
         offset="0.5"
         style="stop-color:#FFFFFF"
         id="stop3036" />
      <stop
         offset="1"
         style="stop-color:#EBEBEB"
         id="stop3038" />
    </linearGradient>
    <linearGradient
       inkscape:collect="always"
       id="linearGradient23419">
      <stop
         style="stop-color:#000000;stop-opacity:1;"
         offset="0"
         id="stop23421" />
      <stop
         style="stop-color:#000000;stop-opacity:0;"
         offset="1"
         id="stop23423" />
    </linearGradient>
    <radialGradient
       r="22.627417"
       fy="41.63604"
       fx="23.334524"
       cy="41.63604"
       cx="23.334524"
       gradientTransform="matrix(1,0,0,0.25,0,31.22703)"
       gradientUnits="userSpaceOnUse"
       id="radialGradient2891"
       xlink:href="#linearGradient23419"
       inkscape:collect="always" />
    <linearGradient
       inkscape:collect="always"
       xlink:href="#aigrd1"
       id="linearGradient5227"
       gradientUnits="userSpaceOnUse"
       gradientTransform="matrix(0.3289528,0,0,0.3289528,-5.6414197,29.045417)"
       x1="14.9966"
       y1="11.1885"
       x2="32.511002"
       y2="34.307499" />
    <linearGradient
       inkscape:collect="always"
       xlink:href="#aigrd2"
       id="linearGradient5229"
       gradientUnits="userSpaceOnUse"
       gradientTransform="matrix(0.32895279,0,0,0.32895279,-5.6414197,29.045417)"
       x1="12.2744"
       y1="32.4165"
       x2="35.391201"
       y2="14.2033" />
    <linearGradient
       inkscape:collect="always"
       xlink:href="#linearGradient4409"
       id="linearGradient5231"
       gradientUnits="userSpaceOnUse"
       gradientTransform="matrix(0.27632039,0,0,0.27632039,-4.3126102,30.006948)"
       x1="25.985928"
       y1="24.919628"
       x2="15.889072"
       y2="11.669628" />
    <linearGradient
       inkscape:collect="always"
       xlink:href="#linearGradient6036"
       id="linearGradient5233"
       gradientUnits="userSpaceOnUse"
       gradientTransform="matrix(0.27632039,0,0,0.27632039,-4.474125,29.736218)"
       x1="10.50172"
       y1="3.6100161"
       x2="48.798885"
       y2="54.698483" />
    <linearGradient
       inkscape:collect="always"
       xlink:href="#linearGradient6028"
       id="linearGradient5235"
       gradientUnits="userSpaceOnUse"
       x1="28.702885"
       y1="31.494707"
       x2="17.742729"
       y2="18.366575" />
    <linearGradient
       inkscape:collect="always"
       xlink:href="#linearGradient5112"
       id="linearGradient5243"
       gradientUnits="userSpaceOnUse"
       x1="22.359638"
       y1="15.980393"
       x2="25.062195"
       y2="15.980393" />
    <linearGradient
       inkscape:collect="always"
       xlink:href="#aigrd1"
       id="linearGradient5297"
       gradientUnits="userSpaceOnUse"
       gradientTransform="matrix(0.3289528,0,0,0.3289528,-5.6414197,29.045417)"
       x1="14.9966"
       y1="11.1885"
       x2="32.511002"
       y2="34.307499" />
    <linearGradient
       inkscape:collect="always"
       xlink:href="#aigrd2"
       id="linearGradient5299"
       gradientUnits="userSpaceOnUse"
       gradientTransform="matrix(0.32895279,0,0,0.32895279,-5.6414197,29.045417)"
       x1="12.2744"
       y1="32.4165"
       x2="35.391201"
       y2="14.2033" />
    <linearGradient
       inkscape:collect="always"
       xlink:href="#linearGradient4409"
       id="linearGradient5301"
       gradientUnits="userSpaceOnUse"
       gradientTransform="matrix(0.27632039,0,0,0.27632039,-4.3126102,30.006948)"
       x1="25.985928"
       y1="24.919628"
       x2="15.889072"
       y2="11.669628" />
    <linearGradient
       inkscape:collect="always"
       xlink:href="#linearGradient6036"
       id="linearGradient5303"
       gradientUnits="userSpaceOnUse"
       gradientTransform="matrix(0.27632039,0,0,0.27632039,-4.474125,29.736218)"
       x1="10.50172"
       y1="3.6100161"
       x2="48.798885"
       y2="54.698483" />
    <linearGradient
       inkscape:collect="always"
       xlink:href="#linearGradient6028"
       id="linearGradient5305"
       gradientUnits="userSpaceOnUse"
       x1="28.702885"
       y1="31.494707"
       x2="17.742729"
       y2="18.366575" />
    <linearGradient
       inkscape:collect="always"
       xlink:href="#linearGradient5102"
       id="linearGradient5307"
       gradientUnits="userSpaceOnUse"
       x1="12.077192"
       y1="16.521907"
       x2="30.920941"
       y2="16.521907" />
    <linearGradient
       inkscape:collect="always"
       xlink:href="#linearGradient5112"
       id="linearGradient5309"
       gradientUnits="userSpaceOnUse"
       x1="22.359638"
       y1="15.980393"
       x2="25.062195"
       y2="15.980393" />
    <linearGradient
       inkscape:collect="always"
       xlink:href="#linearGradient3860"
       id="linearGradient5430"
       x1="6.1473002"
       y1="17.52993"
       x2="23.611074"
       y2="17.529928"
       gradientUnits="userSpaceOnUse"
       gradientTransform="translate(1.8125,0)" />
  </defs>
  <sodipodi:namedview
     id="base"
     pagecolor="#ffffff"
     bordercolor="#666666"
     borderopacity="1.0"
     inkscape:pageopacity="0.0"
     inkscape:pageshadow="2"
     inkscape:zoom="8"
     inkscape:cx="24.07508"
     inkscape:cy="17.725476"
     inkscape:current-layer="layer1"
     showgrid="true"
     inkscape:grid-bbox="true"
     inkscape:document-units="px"
     inkscape:window-width="1280"
     inkscape:window-height="941"
     inkscape:window-x="-4"
     inkscape:window-y="-4"
     inkscape:window-maximized="1"
     showguides="true"
     inkscape:guide-bbox="true" />
  <metadata
     id="metadata2864">
    <rdf:RDF>
      <cc:Work
         rdf:about="">
        <dc:format>image/svg+xml</dc:format>
        <dc:type
           rdf:resource="http://purl.org/dc/dcmitype/StillImage" />
        <dc:title>Wii - Delete ID from WBFS</dc:title>
        <cc:license
           rdf:resource="http://creativecommons.org/licenses/by-nc-sa/3.0/" />
        <dc:creator>
          <cc:Agent>
            <dc:title>Yann Papouin</dc:title>
          </cc:Agent>
        </dc:creator>
        <dc:rights>
          <cc:Agent>
            <dc:title>Yann Papouin</dc:title>
          </cc:Agent>
        </dc:rights>
        <dc:publisher>
          <cc:Agent>
            <dc:title>Yann Papouin</dc:title>
          </cc:Agent>
        </dc:publisher>
        <dc:subject>
          <rdf:Bag>
            <rdf:li>delete wii cover game box wbfs</rdf:li>
          </rdf:Bag>
        </dc:subject>
      </cc:Work>
      <cc:License
         rdf:about="http://creativecommons.org/licenses/by-nc-sa/3.0/">
        <cc:permits
           rdf:resource="http://creativecommons.org/ns#Reproduction" />
        <cc:permits
           rdf:resource="http://creativecommons.org/ns#Distribution" />
        <cc:requires
           rdf:resource="http://creativecommons.org/ns#Notice" />
        <cc:requires
           rdf:resource="http://creativecommons.org/ns#Attribution" />
        <cc:prohibits
           rdf:resource="http://creativecommons.org/ns#CommercialUse" />
        <cc:permits
           rdf:resource="http://creativecommons.org/ns#DerivativeWorks" />
        <cc:requires
           rdf:resource="http://creativecommons.org/ns#ShareAlike" />
      </cc:License>
    </rdf:RDF>
  </metadata>
  <g
     id="layer1"
     inkscape:label="Layer 1"
     inkscape:groupmode="layer">
    <path
       sodipodi:type="arc"
       style="opacity:0.45;color:#000000;fill:url(#radialGradient2891);fill-opacity:1;fill-rule:evenodd;stroke:none;stroke-width:2;marker:none;visibility:visible;display:inline;overflow:visible"
       id="path23417"
       sodipodi:cx="23.334524"
       sodipodi:cy="41.63604"
       sodipodi:rx="22.627417"
       sodipodi:ry="5.6568542"
       d="m 45.961941,41.63604 a 22.627417,5.6568542 0 1 1 -45.25483346,0 22.627417,5.6568542 0 1 1 45.25483346,0 z"
       inkscape:r_cx="true"
       inkscape:r_cy="true"
       transform="matrix(0.60057918,0,0,0.5693284,3.385409,4.6980976)" />
    <path
       d=""
       style="fill:#000000"
       id="path6944" />
    <path
       style="fill:#fefefe;fill-opacity:1;fill-rule:evenodd;stroke:none"
       d="m 26.481855,1.731497 c 0.344164,0 0.621237,0.2770722 0.621237,0.6212381 l 0,25.8022419 c 0,0.344166 -0.277073,0.621238 -0.621237,0.621238 l -18.8566081,1.814704 0,-30.01011017 L 26.481855,1.731497 z"
       id="rect2883"
       sodipodi:nodetypes="ccccccc" />
    <path
       sodipodi:nodetypes="ccccc"
       id="path3658"
       d="m 6.6287946,1.3395957 -0.034279,28.3217523 1.0749304,0.929571 0,-30.01011017 -1.0406465,0.75878697 z"
       style="fill:#ececec;fill-opacity:1;fill-rule:evenodd;stroke:none" />
    <path
       id="path5422"
       d="m 8.0517267,24.224136 c 0.016185,-2.631995 0.029427,-7.79784 0.029427,-11.479655 l 0,-6.6942094 1.1821942,0.029524 c 3.2303901,0.080676 6.4448591,0.2671947 6.9722551,0.404564 0.580475,0.1511945 0.832878,0.3793053 1.44033,1.3017086 0.681643,1.0350593 1.134008,1.5046597 1.887338,1.9592427 1.105201,0.6669131 2.868625,1.0886971 4.84763,1.1594791 0.364602,0.01304 0.727546,0.03351 0.806543,0.04549 l 0.143631,0.02178 0,8.169773 0,8.169772 -0.209922,0.02714 c -0.115457,0.01493 -3.918918,0.384468 -8.452136,0.821196 C 12.1658,28.596669 8.3590408,28.9665 8.2395522,28.981787 l -0.217252,0.0278 0.029427,-4.785446 z"
       style="fill:url(#linearGradient5430);fill-opacity:1;stroke:#5c5c5c;stroke-width:0.01918027;stroke-linejoin:round;stroke-miterlimit:4;stroke-opacity:1;stroke-dasharray:none" />
    <path
       sodipodi:type="inkscape:offset"
       inkscape:radius="-0.29831067"
       inkscape:original="M 6.28125 6.0625 L 6.28125 12.75 C 6.28125 16.431815 6.266185 21.586755 6.25 24.21875 L 6.21875 29 L 6.4375 28.96875 C 6.5569886 28.953463 10.341783 28.592978 14.875 28.15625 C 19.408218 27.719522 23.228293 27.35868 23.34375 27.34375 L 23.5625 27.3125 L 23.5625 19.15625 L 23.5625 10.96875 L 23.40625 10.9375 C 23.327253 10.92552 22.958352 10.91929 22.59375 10.90625 C 20.614745 10.835468 18.855201 10.416913 17.75 9.75 C 16.99667 9.295417 16.556643 8.8163093 15.875 7.78125 C 15.267548 6.8588467 15.017975 6.6199445 14.4375 6.46875 C 13.910104 6.3313807 10.66789 6.174426 7.4375 6.09375 L 6.28125 6.0625 z "
       style="fill:none;stroke:#ffffff;stroke-width:1;stroke-linecap:round;stroke-linejoin:round;stroke-miterlimit:4;stroke-opacity:0.60098524;stroke-dasharray:none"
       id="path5438"
       d="m 6.59375,6.375 0,6.375 c 0,3.682629 -0.015057,8.835498 -0.03125,11.46875 l -0.03125,4.4375 c 0.1082216,-0.0116 0.2292869,-0.02727 0.59375,-0.0625 0.4426211,-0.04278 1.0798394,-0.08294 1.84375,-0.15625 1.527821,-0.146626 3.608481,-0.375395 5.875,-0.59375 2.266764,-0.218379 4.370147,-0.415832 5.90625,-0.5625 0.768051,-0.07333 1.398703,-0.113512 1.84375,-0.15625 0.222524,-0.02137 0.375967,-0.05038 0.5,-0.0625 0.0886,-0.0087 0.127315,0.0029 0.15625,0 l 0,-7.90625 0,-7.9375 c -0.05047,-0.0029 -0.07495,0.0026 -0.15625,0 -0.14633,-0.0046 -0.315803,0.0066 -0.5,0 -2.014674,-0.07206 -3.822154,-0.508001 -5,-1.21875 C 16.805031,9.524062 16.31582,8.9864949 15.625,7.9375 15.325089,7.482091 15.113293,7.224156 14.9375,7.0625 14.761707,6.900844 14.638242,6.8185658 14.375,6.75 14.301888,6.7309568 13.986165,6.6911365 13.5625,6.65625 13.138835,6.6213635 12.575733,6.5956482 11.9375,6.5625 10.661035,6.4962036 9.0503583,6.4465296 7.4375,6.40625 L 6.59375,6.375 z"
       transform="translate(1.8125,0)" />
    <path
       sodipodi:type="inkscape:offset"
       inkscape:radius="-1.0322227"
       inkscape:original="M 7.15625 0.8125 L 6.15625 1.53125 L 6.125 28.90625 L 7.15625 29.8125 L 25.375 28.0625 C 25.707731 28.0625 25.96875 27.801482 25.96875 27.46875 L 25.96875 2.53125 C 25.96875 2.1985181 25.707731 1.90625 25.375 1.90625 L 7.15625 0.8125 z "
       style="opacity:0.4125;fill:none;stroke:#000000;stroke-width:1;stroke-linejoin:round;stroke-miterlimit:4;stroke-opacity:1;stroke-dasharray:none"
       id="path3665"
       d="M 7.46875,1.875 7.1875,2.0625 7.15625,28.4375 7.5,28.75 24.9375,27.0625 24.9375,2.90625 7.46875,1.875 z"
       transform="matrix(1.0343638,0,0,1.0343638,0.1104247,-0.18304441)" />
    <path
       style="fill:none;stroke:none"
       d="m 17.721628,25.488128 c -0.649864,0 -1.178662,0.528796 -1.178662,1.178801 0,0.314774 0.122458,0.610762 0.34511,0.833413 0.222651,0.222654 0.519056,0.34525 0.833552,0.345111 0.708311,0 7.369774,-0.0025 7.369774,-0.0025 0.314496,0 0.610901,-0.122736 0.833551,-0.345389 0.222652,-0.222512 0.345111,-0.518639 0.345111,-0.833412 0,-0.650004 -0.528798,-1.178663 -1.178662,-1.178663 0,0 -7.369773,0.0027 -7.369773,0.0027"
       class="ps02"
       id="path1891"
       sodipodi:nodetypes="csscccscc" />
    <path
       style="fill:none;stroke:#959595;stroke-width:1px;stroke-linecap:butt;stroke-linejoin:miter;stroke-opacity:1"
       d="m 25.854131,10.433243 c -9.41336,0 -6.45235,-4.2426405 -10.032078,-4.5519997 C 12.242325,5.5718841 7.8671018,5.5276899 7.8671018,5.5276899"
       id="path5363"
       sodipodi:nodetypes="csc" />
    <path
       transform="matrix(1.0343638,0,0,1.0343638,0.1104247,-0.18304441)"
       d="m 7.125,0.75 -1,0.71875 a 0.06081256,0.06081256 0 0 0 0,0.03125 0.06081256,0.06081256 0 0 0 -0.03125,0 0.06081256,0.06081256 0 0 0 0,0.03125 l -0.03125,27.375 a 0.06081256,0.06081256 0 0 0 0,0.03125 0.06081256,0.06081256 0 0 0 0.03125,0 L 7.125,29.84375 a 0.06081256,0.06081256 0 0 0 0,0.03125 0.06081256,0.06081256 0 0 0 0.03125,0 L 25.375,28.125 c 0.364532,0 0.65625,-0.291717 0.65625,-0.65625 l 0,-24.9375 c 0,-0.3645326 -0.287911,-0.6875 -0.65625,-0.6875 L 7.15625,0.75 a 0.06081256,0.06081256 0 0 0 -0.03125,0 z"
       id="path5380"
       style="opacity:0.4125;fill:none;stroke:#5c5c5c;stroke-width:0.41958159;stroke-linejoin:round;stroke-miterlimit:4;stroke-opacity:1;stroke-dasharray:none"
       inkscape:original="M 7.15625 0.8125 L 6.15625 1.53125 L 6.125 28.90625 L 7.15625 29.8125 L 25.375 28.0625 C 25.707731 28.0625 25.96875 27.801482 25.96875 27.46875 L 25.96875 2.53125 C 25.96875 2.1985181 25.707731 1.90625 25.375 1.90625 L 7.15625 0.8125 z "
       inkscape:radius="0.060806479"
       sodipodi:type="inkscape:offset" />
    <path
       sodipodi:type="arc"
       style="fill:#8b8b8b;fill-opacity:1;stroke:none"
       id="path5414"
       sodipodi:cx="22.1875"
       sodipodi:cy="7.9375"
       sodipodi:rx="2.3125"
       sodipodi:ry="2.3125"
       d="m 24.5,7.9375 a 2.3125,2.3125 0 1 1 -4.625,0 2.3125,2.3125 0 1 1 4.625,0 z"
       transform="translate(0.125,-1.8125)" />
    <rect
       style="fill:#e7e7e7;fill-opacity:1;stroke:#434343;stroke-width:0.57461441;stroke-opacity:1"
       id="rect5416"
       width="10.22412"
       height="3.397723"
       x="14.282141"
       y="24.9863"
       rx="1.0497032"
       ry="1.0559728"
       transform="matrix(0.99697274,-0.07775185,0,1,0,0)" />
    <rect
       style="fill:#7f7f7f;fill-opacity:1;stroke:none"
       id="rect5418"
       width="7.8737159"
       height="1.316574"
       x="15.606936"
       y="26.013727"
       rx="0.36243182"
       ry="0.36460194"
       transform="matrix(0.99718484,-0.07498265,0,1,0,0)" />
    <path
       transform="matrix(0.65600211,0,0,0.74547343,8.0668125,-0.11562299)"
       d="m 24.5,7.9375 a 2.3125,2.3125 0 1 1 -4.625,0 2.3125,2.3125 0 1 1 4.625,0 z"
       sodipodi:ry="2.3125"
       sodipodi:rx="2.3125"
       sodipodi:cy="7.9375"
       sodipodi:cx="22.1875"
       id="path5420"
       style="fill:#d9d9d9;fill-opacity:1;stroke:none"
       sodipodi:type="arc" />
    <g
       id="g5237"
       transform="matrix(0.68353656,0.68353656,-0.68353656,0.68353656,4.4464243,-11.47158)">
      <path
         transform="matrix(1.2230336,0,0,1.2230336,-6.9795882,-10.88813)"
         d="m 31.4375,21.96875 c 0,3.503556 -2.840194,6.34375 -6.34375,6.34375 -3.503556,0 -6.34375,-2.840194 -6.34375,-6.34375 0,-3.503556 2.840194,-6.34375 6.34375,-6.34375 3.503556,0 6.34375,2.840194 6.34375,6.34375 z"
         sodipodi:ry="6.34375"
         sodipodi:rx="6.34375"
         sodipodi:cy="21.96875"
         sodipodi:cx="25.09375"
         id="path3822"
         style="fill:#fe0016;fill-opacity:1"
         sodipodi:type="arc" />
      <rect
         ry="0.7800867"
         rx="0.52946937"
         y="11.061208"
         x="22.715237"
         height="9.8383627"
         width="1.9913499"
         id="rect3837"
         style="fill:#ffffff;fill-opacity:1" />
      <use
         style="fill:url(#linearGradient5243)"
         height="32"
         width="32"
         transform="matrix(0,1,-1,0,39.6913,-7.7305222)"
         id="use3839"
         xlink:href="#rect3837"
         y="0"
         x="0" />
      <path
         sodipodi:type="arc"
         style="fill:none;stroke:#ffffff;stroke-width:0.61700726;stroke-miterlimit:4;stroke-opacity:1;stroke-dasharray:none"
         id="path3841"
         sodipodi:cx="25.09375"
         sodipodi:cy="21.96875"
         sodipodi:rx="6.34375"
         sodipodi:ry="6.34375"
         d="m 31.4375,21.96875 c 0,3.503556 -2.840194,6.34375 -6.34375,6.34375 -3.503556,0 -6.34375,-2.840194 -6.34375,-6.34375 0,-3.503556 2.840194,-6.34375 6.34375,-6.34375 3.503556,0 6.34375,2.840194 6.34375,6.34375 z"
         transform="matrix(1.0361473,0,0,1.0361473,-2.2899101,-6.7824716)" />
    </g>
  </g>
</svg>
