<?xml version="1.0" encoding="UTF-8" standalone="no"?>
<!-- Created with Inkscape (http://www.inkscape.org/) -->

<svg
   xmlns:dc="http://purl.org/dc/elements/1.1/"
   xmlns:cc="http://creativecommons.org/ns#"
   xmlns:rdf="http://www.w3.org/1999/02/22-rdf-syntax-ns#"
   xmlns:svg="http://www.w3.org/2000/svg"
   xmlns="http://www.w3.org/2000/svg"
   xmlns:xlink="http://www.w3.org/1999/xlink"
   xmlns:sodipodi="http://sodipodi.sourceforge.net/DTD/sodipodi-0.dtd"
   xmlns:inkscape="http://www.inkscape.org/namespaces/inkscape"
   width="32px"
   height="32px"
   id="svg2859"
   version="1.1"
   inkscape:version="0.46+devel 21949"
   sodipodi:docname="Export.svg"
   inkscape:output_extension="org.inkscape.output.svg.inkscape"
   inkscape:export-filename="C:\Documents and Settings\yanapa\Mes documents\Inkscape\Wiithon\Export.png"
   inkscape:export-xdpi="135"
   inkscape:export-ydpi="135">
  <title
     id="title3872">Wii - Export ID from WBFS to ISO</title>
  <defs
     id="defs2861">
    <inkscape:perspective
       sodipodi:type="inkscape:persp3d"
       inkscape:vp_x="0 : 16 : 1"
       inkscape:vp_y="0 : 1000 : 0"
       inkscape:vp_z="32 : 16 : 1"
       inkscape:persp3d-origin="16 : 10.666667 : 1"
       id="perspective102" />
    <linearGradient
       id="linearGradient5424">
      <stop
         style="stop-color:#f97e2f;stop-opacity:1;"
         offset="0"
         id="stop5426" />
      <stop
         id="stop5432"
         offset="0.08326366"
         style="stop-color:#ead28f;stop-opacity:1;" />
      <stop
         style="stop-color:#e0b30f;stop-opacity:1;"
         offset="0.91836822"
         id="stop5434" />
      <stop
         style="stop-color:#f9572f;stop-opacity:1;"
         offset="1"
         id="stop5428" />
    </linearGradient>
    <linearGradient
       inkscape:collect="always"
       id="linearGradient23419">
      <stop
         style="stop-color:#000000;stop-opacity:1;"
         offset="0"
         id="stop23421" />
      <stop
         style="stop-color:#000000;stop-opacity:0;"
         offset="1"
         id="stop23423" />
    </linearGradient>
    <linearGradient
       inkscape:collect="always"
       id="linearGradient2268">
      <stop
         style="stop-color:#eeeeec"
         offset="0"
         id="stop2270" />
      <stop
         style="stop-color:#ffffff;stop-opacity:1"
         offset="1"
         id="stop2272" />
    </linearGradient>
    <linearGradient
       inkscape:collect="always"
       id="linearGradient2249">
      <stop
         style="stop-color:#204a87;stop-opacity:1;"
         offset="0"
         id="stop2251" />
      <stop
         style="stop-color:#204a87;stop-opacity:0;"
         offset="1"
         id="stop2253" />
    </linearGradient>
    <linearGradient
       inkscape:collect="always"
       id="linearGradient2319">
      <stop
         style="stop-color:#ffffff;stop-opacity:1;"
         offset="0"
         id="stop2321" />
      <stop
         style="stop-color:#ffffff;stop-opacity:0;"
         offset="1"
         id="stop2323" />
    </linearGradient>
    <linearGradient
       id="linearGradient2356">
      <stop
         style="stop-color:#8a9580;stop-opacity:1;"
         offset="0"
         id="stop2358" />
      <stop
         id="stop2364"
         offset="0.38488522"
         style="stop-color:#dcded9;stop-opacity:1;" />
      <stop
         style="stop-color:#b8bcb4;stop-opacity:1;"
         offset="0.6339286"
         id="stop2366" />
      <stop
         id="stop2368"
         offset="0.8214286"
         style="stop-color:#d7d9d5;stop-opacity:1;" />
      <stop
         style="stop-color:#babdb6"
         offset="1"
         id="stop2360" />
    </linearGradient>
    <linearGradient
       inkscape:collect="always"
       id="linearGradient2294">
      <stop
         style="stop-color:#3465a4"
         offset="0"
         id="stop2296" />
      <stop
         style="stop-color:#3465a4;stop-opacity:0"
         offset="1"
         id="stop2298" />
    </linearGradient>
    <linearGradient
       inkscape:collect="always"
       id="linearGradient2238">
      <stop
         style="stop-color:#ffffff;stop-opacity:1;"
         offset="0"
         id="stop2240" />
      <stop
         style="stop-color:#ffffff;stop-opacity:0;"
         offset="1"
         id="stop2242" />
    </linearGradient>
    <linearGradient
       inkscape:collect="always"
       id="linearGradient2207">
      <stop
         style="stop-color:#ffffff;stop-opacity:1;"
         offset="0"
         id="stop2209" />
      <stop
         style="stop-color:#ffffff;stop-opacity:0;"
         offset="1"
         id="stop2211" />
    </linearGradient>
    <linearGradient
       id="linearGradient2388"
       inkscape:collect="always">
      <stop
         id="stop2390"
         offset="0"
         style="stop-color:#204a87" />
      <stop
         id="stop2392"
         offset="1"
         style="stop-color:#204a87;stop-opacity:0.3984375" />
    </linearGradient>
    <linearGradient
       inkscape:collect="always"
       id="linearGradient2223">
      <stop
         style="stop-color:#3465a4"
         offset="0"
         id="stop2225" />
      <stop
         style="stop-color:#729fcf"
         offset="1"
         id="stop2227" />
    </linearGradient>
    <linearGradient
       id="linearGradient5048">
      <stop
         style="stop-color:black;stop-opacity:0;"
         offset="0"
         id="stop5050" />
      <stop
         id="stop5056"
         offset="0.5"
         style="stop-color:black;stop-opacity:1;" />
      <stop
         style="stop-color:black;stop-opacity:0;"
         offset="1"
         id="stop5052" />
    </linearGradient>
    <linearGradient
       inkscape:collect="always"
       id="linearGradient5060">
      <stop
         style="stop-color:black;stop-opacity:1;"
         offset="0"
         id="stop5062" />
      <stop
         style="stop-color:black;stop-opacity:0;"
         offset="1"
         id="stop5064" />
    </linearGradient>
    <linearGradient
       inkscape:collect="always"
       xlink:href="#linearGradient5048"
       id="linearGradient5660"
       gradientUnits="userSpaceOnUse"
       gradientTransform="matrix(2.774389,0,0,1.969706,-1892.179,-872.8854)"
       x1="302.85715"
       y1="366.64789"
       x2="302.85715"
       y2="609.50507" />
    <radialGradient
       inkscape:collect="always"
       xlink:href="#linearGradient5060"
       id="radialGradient5662"
       gradientUnits="userSpaceOnUse"
       gradientTransform="matrix(2.774389,0,0,1.969706,-1891.633,-872.8854)"
       cx="605.71429"
       cy="486.64789"
       fx="605.71429"
       fy="486.64789"
       r="117.14286" />
    <radialGradient
       inkscape:collect="always"
       xlink:href="#linearGradient5060"
       id="radialGradient5664"
       gradientUnits="userSpaceOnUse"
       gradientTransform="matrix(-2.774389,0,0,1.969706,112.7623,-872.8854)"
       cx="605.71429"
       cy="486.64789"
       fx="605.71429"
       fy="486.64789"
       r="117.14286" />
    <linearGradient
       inkscape:collect="always"
       xlink:href="#linearGradient2223"
       id="linearGradient5666"
       gradientUnits="userSpaceOnUse"
       gradientTransform="translate(30.624974,9.891604)"
       x1="43.375"
       y1="-9.375"
       x2="21.125"
       y2="31.75" />
    <linearGradient
       inkscape:collect="always"
       xlink:href="#linearGradient2388"
       id="linearGradient5668"
       gradientUnits="userSpaceOnUse"
       gradientTransform="translate(30.624974,9.891604)"
       x1="33.349056"
       y1="28.69302"
       x2="35.974056"
       y2="33.049397" />
    <linearGradient
       inkscape:collect="always"
       xlink:href="#linearGradient2207"
       id="linearGradient5670"
       gradientUnits="userSpaceOnUse"
       gradientTransform="translate(30.624974,9.891604)"
       x1="10.875"
       y1="11.5"
       x2="47"
       y2="47.375" />
    <linearGradient
       inkscape:collect="always"
       xlink:href="#linearGradient2238"
       id="linearGradient5672"
       gradientUnits="userSpaceOnUse"
       gradientTransform="translate(30.624974,9.891604)"
       x1="34.840229"
       y1="38.464149"
       x2="30.685976"
       y2="29" />
    <linearGradient
       inkscape:collect="always"
       xlink:href="#linearGradient2294"
       id="linearGradient5674"
       gradientUnits="userSpaceOnUse"
       gradientTransform="translate(30.624974,9.891604)"
       x1="18.75"
       y1="27.654568"
       x2="18.826717"
       y2="36.774681" />
    <linearGradient
       inkscape:collect="always"
       xlink:href="#linearGradient2356"
       id="linearGradient5676"
       gradientUnits="userSpaceOnUse"
       gradientTransform="translate(30.624974,9.891604)"
       x1="10"
       y1="27.996471"
       x2="31"
       y2="42" />
    <linearGradient
       inkscape:collect="always"
       xlink:href="#linearGradient2319"
       id="linearGradient5678"
       gradientUnits="userSpaceOnUse"
       gradientTransform="translate(30.624974,9.891604)"
       x1="20.484835"
       y1="35"
       x2="27.375"
       y2="42.125" />
    <linearGradient
       inkscape:collect="always"
       xlink:href="#linearGradient2249"
       id="linearGradient5680"
       gradientUnits="userSpaceOnUse"
       gradientTransform="translate(30.624974,9.891604)"
       x1="37.625"
       y1="7.625"
       x2="37.625"
       y2="3.4829895" />
    <linearGradient
       inkscape:collect="always"
       xlink:href="#linearGradient2268"
       id="linearGradient5682"
       gradientUnits="userSpaceOnUse"
       gradientTransform="translate(30.624974,9.891604)"
       x1="21.875"
       y1="7.6059465"
       x2="21.875"
       y2="18.51421" />
    <radialGradient
       inkscape:collect="always"
       xlink:href="#linearGradient23419"
       id="radialGradient5742"
       gradientUnits="userSpaceOnUse"
       gradientTransform="matrix(1,0,0,0.25,0,31.22703)"
       cx="23.334524"
       cy="41.63604"
       fx="23.334524"
       fy="41.63604"
       r="22.627417" />
    <linearGradient
       inkscape:collect="always"
       xlink:href="#linearGradient5424"
       id="linearGradient5744"
       gradientUnits="userSpaceOnUse"
       x1="6.1473002"
       y1="17.52993"
       x2="23.611075"
       y2="17.529929" />
  </defs>
  <sodipodi:namedview
     id="base"
     pagecolor="#ffffff"
     bordercolor="#666666"
     borderopacity="1.0"
     inkscape:pageopacity="0.0"
     inkscape:pageshadow="2"
     inkscape:zoom="5.6568543"
     inkscape:cx="13.065775"
     inkscape:cy="-0.15739943"
     inkscape:current-layer="g5727"
     showgrid="true"
     inkscape:grid-bbox="true"
     inkscape:document-units="px"
     inkscape:window-width="1280"
     inkscape:window-height="941"
     inkscape:window-x="-4"
     inkscape:window-y="-4"
     inkscape:window-maximized="1"
     showguides="true"
     inkscape:guide-bbox="true" />
  <metadata
     id="metadata2864">
    <rdf:RDF>
      <cc:Work
         rdf:about="">
        <dc:format>image/svg+xml</dc:format>
        <dc:type
           rdf:resource="http://purl.org/dc/dcmitype/StillImage" />
        <dc:title>Wii - Export ID from WBFS to ISO</dc:title>
        <cc:license
           rdf:resource="http://creativecommons.org/licenses/by-nc-sa/3.0/" />
        <dc:creator>
          <cc:Agent>
            <dc:title>Yann Papouin</dc:title>
          </cc:Agent>
        </dc:creator>
        <dc:rights>
          <cc:Agent>
            <dc:title>Yann Papouin</dc:title>
          </cc:Agent>
        </dc:rights>
        <dc:publisher>
          <cc:Agent>
            <dc:title>Yann Papouin</dc:title>
          </cc:Agent>
        </dc:publisher>
        <dc:subject>
          <rdf:Bag>
            <rdf:li>floppy export wii cover iso wbfs</rdf:li>
          </rdf:Bag>
        </dc:subject>
      </cc:Work>
      <cc:License
         rdf:about="http://creativecommons.org/licenses/by-nc-sa/3.0/">
        <cc:permits
           rdf:resource="http://creativecommons.org/ns#Reproduction" />
        <cc:permits
           rdf:resource="http://creativecommons.org/ns#Distribution" />
        <cc:requires
           rdf:resource="http://creativecommons.org/ns#Notice" />
        <cc:requires
           rdf:resource="http://creativecommons.org/ns#Attribution" />
        <cc:prohibits
           rdf:resource="http://creativecommons.org/ns#CommercialUse" />
        <cc:permits
           rdf:resource="http://creativecommons.org/ns#DerivativeWorks" />
        <cc:requires
           rdf:resource="http://creativecommons.org/ns#ShareAlike" />
      </cc:License>
    </rdf:RDF>
  </metadata>
  <g
     id="layer1"
     inkscape:label="Layer 1"
     inkscape:groupmode="layer">
    <path
       d=""
       style="fill:#000000"
       id="path6944" />
    <g
       id="g5727"
       transform="translate(-1.6793786,0)">
      <path
         transform="matrix(0.60057918,0,0,0.5693284,1.572909,4.6980976)"
         inkscape:r_cy="true"
         inkscape:r_cx="true"
         d="m 45.961941,41.63604 c 0,3.124194 -10.13064,5.656854 -22.627417,5.656854 -12.496777,0 -22.62741646,-2.53266 -22.62741646,-5.656854 0,-3.124195 10.13063946,-5.656854 22.62741646,-5.656854 12.496777,0 22.627417,2.532659 22.627417,5.656854 z"
         sodipodi:ry="5.6568542"
         sodipodi:rx="22.627417"
         sodipodi:cy="41.63604"
         sodipodi:cx="23.334524"
         id="path23417"
         style="opacity:0.45;color:#000000;fill:url(#radialGradient5742);fill-opacity:1;fill-rule:evenodd;stroke:none;stroke-width:2;marker:none;visibility:visible;display:inline;overflow:visible"
         sodipodi:type="arc" />
      <path
         sodipodi:nodetypes="ccccccc"
         id="rect2883"
         d="m 24.669355,1.731497 c 0.344164,0 0.621237,0.2770722 0.621237,0.6212381 l 0,25.8022419 c 0,0.344166 -0.277073,0.621238 -0.621237,0.621238 l -18.8566081,1.814704 0,-30.01011017 L 24.669355,1.731497 z"
         style="fill:#fefefe;fill-opacity:1;fill-rule:evenodd;stroke:none" />
      <path
         style="fill:#ececec;fill-opacity:1;fill-rule:evenodd;stroke:none"
         d="m 4.8162946,1.3395957 -0.034279,28.3217523 1.0749304,0.929571 0,-30.01011017 -1.0406465,0.75878697 z"
         id="path3658"
         sodipodi:nodetypes="ccccc" />
      <path
         style="fill:url(#linearGradient5744);fill-opacity:1;stroke:#5c5c5c;stroke-width:0.01918027;stroke-linejoin:round;stroke-miterlimit:4;stroke-opacity:1;stroke-dasharray:none"
         d="m 6.2392267,24.224136 c 0.016185,-2.631995 0.029427,-7.79784 0.029427,-11.479655 l 0,-6.6942094 1.1821942,0.029524 c 3.2303901,0.080676 6.4448591,0.2671947 6.9722551,0.404564 0.580475,0.1511945 0.832878,0.3793053 1.44033,1.3017086 0.681643,1.0350593 1.134008,1.5046597 1.887338,1.9592427 1.105201,0.6669131 2.868625,1.0886971 4.84763,1.1594791 0.364602,0.01304 0.727546,0.03351 0.806543,0.04549 l 0.143631,0.02178 0,8.169773 0,8.169772 -0.209922,0.02714 c -0.115457,0.01493 -3.918918,0.384468 -8.452136,0.821196 C 10.3533,28.596669 6.5465408,28.9665 6.4270522,28.981787 l -0.217252,0.0278 0.029427,-4.785446 z"
         id="path5422" />
      <path
         d="m 6.59375,6.375 0,6.375 c 0,3.682629 -0.015057,8.835498 -0.03125,11.46875 l -0.03125,4.4375 c 0.1082216,-0.0116 0.2292869,-0.02727 0.59375,-0.0625 0.4426211,-0.04278 1.0798394,-0.08294 1.84375,-0.15625 1.527821,-0.146626 3.608481,-0.375395 5.875,-0.59375 2.266764,-0.218379 4.370147,-0.415832 5.90625,-0.5625 0.768051,-0.07333 1.398703,-0.113512 1.84375,-0.15625 0.222524,-0.02137 0.375967,-0.05038 0.5,-0.0625 0.0886,-0.0087 0.127315,0.0029 0.15625,0 l 0,-7.90625 0,-7.9375 c -0.05047,-0.0029 -0.07495,0.0026 -0.15625,0 -0.14633,-0.0046 -0.315803,0.0066 -0.5,0 -2.014674,-0.07206 -3.822154,-0.508001 -5,-1.21875 C 16.805031,9.524062 16.31582,8.9864949 15.625,7.9375 15.325089,7.482091 15.113293,7.224156 14.9375,7.0625 14.761707,6.900844 14.638242,6.8185658 14.375,6.75 14.301888,6.7309568 13.986165,6.6911365 13.5625,6.65625 13.138835,6.6213635 12.575733,6.5956482 11.9375,6.5625 10.661035,6.4962036 9.0503583,6.4465296 7.4375,6.40625 L 6.59375,6.375 z"
         id="path5438"
         style="fill:none;stroke:#ffffff;stroke-width:1;stroke-linecap:round;stroke-linejoin:round;stroke-miterlimit:4;stroke-opacity:0.60098524;stroke-dasharray:none"
         inkscape:original="M 6.28125 6.0625 L 6.28125 12.75 C 6.28125 16.431815 6.266185 21.586755 6.25 24.21875 L 6.21875 29 L 6.4375 28.96875 C 6.5569886 28.953463 10.341783 28.592978 14.875 28.15625 C 19.408218 27.719522 23.228293 27.35868 23.34375 27.34375 L 23.5625 27.3125 L 23.5625 19.15625 L 23.5625 10.96875 L 23.40625 10.9375 C 23.327253 10.92552 22.958352 10.91929 22.59375 10.90625 C 20.614745 10.835468 18.855201 10.416913 17.75 9.75 C 16.99667 9.295417 16.556643 8.8163093 15.875 7.78125 C 15.267548 6.8588467 15.017975 6.6199445 14.4375 6.46875 C 13.910104 6.3313807 10.66789 6.174426 7.4375 6.09375 L 6.28125 6.0625 z "
         inkscape:radius="-0.29831067"
         sodipodi:type="inkscape:offset" />
      <path
         transform="matrix(1.0343638,0,0,1.0343638,-1.7020753,-0.18304441)"
         d="M 7.46875,1.875 7.1875,2.0625 7.15625,28.4375 7.5,28.75 24.9375,27.0625 24.9375,2.90625 7.46875,1.875 z"
         id="path3665"
         style="opacity:0.4125;fill:none;stroke:#000000;stroke-width:1;stroke-linejoin:round;stroke-miterlimit:4;stroke-opacity:1;stroke-dasharray:none"
         inkscape:original="M 7.15625 0.8125 L 6.15625 1.53125 L 6.125 28.90625 L 7.15625 29.8125 L 25.375 28.0625 C 25.707731 28.0625 25.96875 27.801482 25.96875 27.46875 L 25.96875 2.53125 C 25.96875 2.1985181 25.707731 1.90625 25.375 1.90625 L 7.15625 0.8125 z "
         inkscape:radius="-1.0322227"
         sodipodi:type="inkscape:offset" />
      <path
         sodipodi:nodetypes="csscccscc"
         id="path1891"
         class="ps02"
         d="m 15.909128,25.488128 c -0.649864,0 -1.178662,0.528796 -1.178662,1.178801 0,0.314774 0.122458,0.610762 0.34511,0.833413 0.222651,0.222654 0.519056,0.34525 0.833552,0.345111 0.708311,0 7.369774,-0.0025 7.369774,-0.0025 0.314496,0 0.610901,-0.122736 0.833551,-0.345389 0.222652,-0.222512 0.345111,-0.518639 0.345111,-0.833412 0,-0.650004 -0.528798,-1.178663 -1.178662,-1.178663 0,0 -7.369773,0.0027 -7.369773,0.0027"
         style="fill:none;stroke:none" />
      <path
         sodipodi:nodetypes="csc"
         id="path5363"
         d="m 24.041631,10.433243 c -9.41336,0 -6.45235,-4.2426405 -10.032078,-4.5519997 C 10.429825,5.5718841 6.0546018,5.5276899 6.0546018,5.5276899"
         style="fill:none;stroke:#959595;stroke-width:1px;stroke-linecap:butt;stroke-linejoin:miter;stroke-opacity:1" />
      <path
         sodipodi:type="inkscape:offset"
         inkscape:radius="0.060806479"
         inkscape:original="M 7.15625 0.8125 L 6.15625 1.53125 L 6.125 28.90625 L 7.15625 29.8125 L 25.375 28.0625 C 25.707731 28.0625 25.96875 27.801482 25.96875 27.46875 L 25.96875 2.53125 C 25.96875 2.1985181 25.707731 1.90625 25.375 1.90625 L 7.15625 0.8125 z "
         style="opacity:0.4125;fill:none;stroke:#5c5c5c;stroke-width:0.41958159;stroke-linejoin:round;stroke-miterlimit:4;stroke-opacity:1;stroke-dasharray:none"
         id="path5380"
         d="m 7.125,0.75 -1,0.71875 a 0.06081256,0.06081256 0 0 0 0,0.03125 0.06081256,0.06081256 0 0 0 -0.03125,0 0.06081256,0.06081256 0 0 0 0,0.03125 l -0.03125,27.375 a 0.06081256,0.06081256 0 0 0 0,0.03125 0.06081256,0.06081256 0 0 0 0.03125,0 L 7.125,29.84375 a 0.06081256,0.06081256 0 0 0 0,0.03125 0.06081256,0.06081256 0 0 0 0.03125,0 L 25.375,28.125 c 0.364532,0 0.65625,-0.291717 0.65625,-0.65625 l 0,-24.9375 c 0,-0.3645326 -0.287911,-0.6875 -0.65625,-0.6875 L 7.15625,0.75 a 0.06081256,0.06081256 0 0 0 -0.03125,0 z"
         transform="matrix(1.0343638,0,0,1.0343638,-1.7020753,-0.18304441)" />
      <path
         transform="translate(-1.6875,-1.8125)"
         d="m 24.5,7.9375 c 0,1.2771585 -1.035342,2.3125 -2.3125,2.3125 -1.277158,0 -2.3125,-1.0353415 -2.3125,-2.3125 0,-1.2771585 1.035342,-2.3125 2.3125,-2.3125 1.277158,0 2.3125,1.0353415 2.3125,2.3125 z"
         sodipodi:ry="2.3125"
         sodipodi:rx="2.3125"
         sodipodi:cy="7.9375"
         sodipodi:cx="22.1875"
         id="path5414"
         style="fill:#8b8b8b;fill-opacity:1;stroke:none"
         sodipodi:type="arc" />
      <path
         sodipodi:type="arc"
         style="fill:#d9d9d9;fill-opacity:1;stroke:none"
         id="path5420"
         sodipodi:cx="22.1875"
         sodipodi:cy="7.9375"
         sodipodi:rx="2.3125"
         sodipodi:ry="2.3125"
         d="m 24.5,7.9375 c 0,1.2771585 -1.035342,2.3125 -2.3125,2.3125 -1.277158,0 -2.3125,-1.0353415 -2.3125,-2.3125 0,-1.2771585 1.035342,-2.3125 2.3125,-2.3125 1.277158,0 2.3125,1.0353415 2.3125,2.3125 z"
         transform="matrix(0.65600211,0,0,0.74547343,6.2543125,-0.11562299)" />
    </g>
    <g
       id="g5636"
       transform="matrix(0.44892331,0,0,0.44892331,-2.8938713,6.6807971)">
      <g
         id="g6707"
         transform="matrix(0.02293039,0,0,0.02825857,74.020104,46.599184)"
         style="display:inline">
        <rect
           y="-150.69685"
           x="-1559.2523"
           height="478.35718"
           width="1339.6335"
           id="rect6709"
           style="opacity:0.40206185;color:#000000;fill:url(#linearGradient5660);fill-opacity:1;fill-rule:nonzero;stroke:none;stroke-width:1;marker:none;visibility:visible;display:inline;overflow:visible" />
        <path
           sodipodi:nodetypes="cccc"
           id="path6711"
           d="m -219.61876,-150.68038 c 0,0 0,478.33079 0,478.33079 142.874166,0.90045 345.40022,-107.16966 345.40014,-239.196175 0,-132.026537 -159.436816,-239.134595 -345.40014,-239.134615 z"
           style="opacity:0.40206185;color:#000000;fill:url(#radialGradient5662);fill-opacity:1;fill-rule:nonzero;stroke:none;stroke-width:1;marker:none;visibility:visible;display:inline;overflow:visible" />
        <path
           style="opacity:0.40206185;color:#000000;fill:url(#radialGradient5664);fill-opacity:1;fill-rule:nonzero;stroke:none;stroke-width:1;marker:none;visibility:visible;display:inline;overflow:visible"
           d="m -1559.2523,-150.68038 c 0,0 0,478.33079 0,478.33079 -142.8742,0.90045 -345.4002,-107.16966 -345.4002,-239.196175 0,-132.026537 159.4368,-239.134595 345.4002,-239.134615 z"
           id="path6713"
           sodipodi:nodetypes="cccc" />
      </g>
      <path
         sodipodi:nodetypes="ccccccccc"
         id="rect1314"
         d="m 35.627576,13.391604 34.994796,0 c 0.832442,0 1.502602,0.67016 1.502602,1.502602 l 0,34.994796 c 0,0.832442 -0.67016,1.502602 -1.502602,1.502602 l -32.997398,0 -3.5,-3.5 0,-32.997398 c 0,-0.832442 0.67016,-1.502602 1.502602,-1.502602 z"
         style="color:#000000;fill:url(#linearGradient5666);fill-opacity:1;fill-rule:nonzero;stroke:#204a87;stroke-width:1;stroke-linecap:square;stroke-linejoin:round;stroke-miterlimit:4;stroke-opacity:1;stroke-dashoffset:0;marker:none;visibility:visible;display:inline;overflow:visible" />
      <path
         sodipodi:nodetypes="ccccccc"
         id="rect2194"
         d="m 43.690076,38.391604 22.869796,0 c 0.867067,0 1.565102,0.698035 1.565102,1.565102 l 0,11.434898 -26,0 0,-11.434898 c 0,-0.867067 0.698035,-1.565102 1.565102,-1.565102 z"
         style="opacity:0.4;color:#000000;fill:none;stroke:url(#linearGradient5668);stroke-width:1;stroke-linecap:square;stroke-linejoin:round;stroke-miterlimit:4;stroke-opacity:1;stroke-dashoffset:0;marker:none;visibility:visible;display:inline;overflow:visible" />
      <path
         sodipodi:nodetypes="ccccccccc"
         id="rect2204"
         d="m 35.601687,14.391604 35.046573,0 c 0.2641,0 0.476714,0.212614 0.476714,0.476713 l 0,35.046573 c 0,0.2641 -0.212614,0.476714 -0.476714,0.476714 l -32.523286,0 -3,-3 0,-32.523287 c 0,-0.264099 0.212614,-0.476713 0.476713,-0.476713 z"
         style="opacity:0.6;color:#000000;fill:none;stroke:url(#linearGradient5670);stroke-width:1;stroke-linecap:square;stroke-linejoin:round;stroke-miterlimit:4;stroke-opacity:1;stroke-dashoffset:0;marker:none;visibility:visible;display:inline;overflow:visible" />
      <path
         sodipodi:nodetypes="cccccc"
         id="rect2231"
         d="m 43.124974,50.391604 0,-10.523287 c 0,-0.264099 0.212614,-0.476713 0.476714,-0.476713 l 23.046572,0 c 0.2641,0 0.476714,0.212614 0.476714,0.476713 l 0,10.523287"
         style="opacity:0.23921569;color:#000000;fill:none;stroke:url(#linearGradient5672);stroke-width:1;stroke-linecap:round;stroke-linejoin:round;stroke-miterlimit:4;stroke-opacity:1;stroke-dasharray:none;stroke-dashoffset:0;marker:none;visibility:visible;display:inline;overflow:visible" />
      <rect
         y="39.391605"
         x="44.124973"
         height="10"
         width="7"
         id="rect2284"
         style="color:#000000;fill:url(#linearGradient5674);fill-opacity:1;fill-rule:nonzero;stroke:none;stroke-width:1;marker:none;visibility:visible;display:inline;overflow:visible" />
      <path
         sodipodi:nodetypes="csccccccccccssccssccssccssc"
         id="rect2192"
         d="m 42.437474,38.391604 c -0.301495,0.03811 -0.594589,0.186355 -0.8125,0.375 -0.302126,0.274487 -0.5,0.682765 -0.5,1.125 l 0,11.5 20,0 0,-11.5 c 0,-0.832442 -0.667558,-1.5 -1.5,-1.5 l -17,0 c -0.06503,0 -0.124689,-0.0079 -0.1875,0 z m 3.125,2 c 0.03685,-0.0075 0.08587,0 0.125,0 l 3.875,0 c 0.127183,0 0.249518,0.05461 0.34375,0.125 0.02789,0.023 0.07075,0.06586 0.09375,0.09375 0.07039,0.09423 0.125,0.216567 0.125,0.34375 l 0,6.875 c 0,0.127183 -0.05461,0.249518 -0.125,0.34375 -0.023,0.02789 -0.06586,0.07075 -0.09375,0.09375 -0.09423,0.07039 -0.216567,0.125 -0.34375,0.125 l -3.875,0 c -0.127183,0 -0.249518,-0.05461 -0.34375,-0.125 -0.02789,-0.023 -0.07075,-0.06586 -0.09375,-0.09375 -0.07038,-0.09423 -0.125,-0.216567 -0.125,-0.34375 l 0,-6.875 c 0,-0.127183 0.05461,-0.249518 0.125,-0.34375 0.023,-0.02789 0.06586,-0.07075 0.09375,-0.09375 0.06524,-0.04873 0.135831,-0.108118 0.21875,-0.125 z"
         style="color:#000000;fill:url(#linearGradient5676);fill-opacity:1;fill-rule:nonzero;stroke:#555753;stroke-width:1;stroke-linecap:square;stroke-linejoin:round;stroke-miterlimit:4;stroke-opacity:1;stroke-dashoffset:0;marker:none;visibility:visible;display:inline;overflow:visible" />
      <rect
         y="15.891605"
         x="35.624973"
         height="2"
         width="2"
         id="rect2278"
         style="opacity:0.2;color:#000000;fill:#ffffff;fill-opacity:1;fill-rule:nonzero;stroke:none;stroke-width:1;marker:none;visibility:visible;display:inline;overflow:visible" />
      <rect
         y="15.891605"
         x="35.624973"
         height="1"
         width="1"
         id="rect2276"
         style="color:#000000;fill:#204a87;fill-opacity:1;fill-rule:nonzero;stroke:none;stroke-width:1;marker:none;visibility:visible;display:inline;overflow:visible" />
      <rect
         y="15.891605"
         x="68.624969"
         height="2"
         width="2"
         id="rect2280"
         style="opacity:0.2;color:#000000;fill:#ffffff;fill-opacity:1;fill-rule:nonzero;stroke:none;stroke-width:1;marker:none;visibility:visible;display:inline;overflow:visible" />
      <rect
         y="15.891605"
         x="68.624969"
         height="1"
         width="1"
         id="rect2282"
         style="color:#000000;fill:#204a87;fill-opacity:1;fill-rule:nonzero;stroke:none;stroke-width:1;marker:none;visibility:visible;display:inline;overflow:visible" />
      <path
         sodipodi:nodetypes="ccccccc"
         id="rect2316"
         d="m 42.624974,39.391604 16.96967,0 c 0.293803,0 0.53033,0.236527 0.53033,0.53033 l 0,10.46967 -18.03033,0 0,-10.46967 c 0,-0.293803 0.236527,-0.53033 0.53033,-0.53033 z"
         style="opacity:0.60674157;color:#000000;fill:none;stroke:url(#linearGradient5678);stroke-width:1;stroke-linecap:square;stroke-linejoin:miter;stroke-miterlimit:4;stroke-opacity:1;stroke-dashoffset:0;marker:none;visibility:visible;display:inline;overflow:visible" />
      <path
         sodipodi:nodetypes="ccccccc"
         id="rect2247"
         d="m 68.124974,13.391604 0,20.484724 c 0,0.839463 -0.675813,1.515276 -1.515276,1.515276 l -26.969448,0 c -0.839463,0 -1.515276,-0.675813 -1.515276,-1.515276 l 0,-20.484724 30,0 z"
         style="opacity:0.6;color:#000000;fill:none;stroke:url(#linearGradient5680);stroke-width:1;stroke-linecap:square;stroke-linejoin:round;stroke-miterlimit:4;stroke-opacity:1;stroke-dashoffset:0;marker:none;visibility:visible;display:inline;overflow:visible" />
      <rect
         ry="1.1478047"
         rx="1.1478047"
         y="13.391603"
         x="39.124973"
         height="21"
         width="28"
         id="rect2257"
         style="color:#000000;fill:url(#linearGradient5682);fill-opacity:1;fill-rule:nonzero;stroke:#e2e2df;stroke-width:1;stroke-linecap:square;stroke-linejoin:round;stroke-miterlimit:4;stroke-opacity:1;stroke-dasharray:none;stroke-dashoffset:0;marker:none;visibility:visible;display:inline;overflow:visible" />
      <rect
         ry="0"
         rx="0"
         y="12.891603"
         x="38.624973"
         height="3"
         width="29"
         id="rect2259"
         style="color:#000000;fill:#f57900;fill-opacity:1;fill-rule:nonzero;stroke:none;stroke-width:1;marker:none;visibility:visible;display:inline;overflow:visible" />
      <path
         sodipodi:nodetypes="cc"
         id="path2264"
         d="m 39.124974,13.391604 28,0"
         style="fill:#ce5c00;fill-opacity:0.75;fill-rule:evenodd;stroke:#ce5c00;stroke-width:1;stroke-linecap:square;stroke-linejoin:miter;stroke-miterlimit:4;stroke-opacity:1;stroke-dasharray:none;display:inline" />
      <path
         sodipodi:nodetypes="cc"
         id="path2266"
         d="m 39.124974,14.391604 28,0"
         style="opacity:0.34901961;fill:#ce5c00;fill-opacity:0.75;fill-rule:evenodd;stroke:#ffffff;stroke-width:1;stroke-linecap:square;stroke-linejoin:miter;stroke-miterlimit:4;stroke-opacity:1;stroke-dasharray:none;display:inline" />
      <path
         id="path2329"
         d="m 39.124968,21.391604 27.978296,0"
         style="fill:none;stroke:#d3d7cf;stroke-width:1.00000024;stroke-linecap:square;stroke-linejoin:miter;stroke-miterlimit:4;stroke-opacity:1;stroke-dasharray:none;display:inline" />
      <path
         id="path2331"
         d="m 39.124968,28.391604 27.978296,0"
         style="fill:none;stroke:#d3d7cf;stroke-width:1.00000024;stroke-linecap:square;stroke-linejoin:miter;stroke-miterlimit:4;stroke-opacity:1;stroke-dasharray:none;display:inline" />
    </g>
  </g>
</svg>
